<?xml version="1.0" standalone="no"?>
<!DOCTYPE svg PUBLIC "-//W3C//DTD SVG 20010904//EN"
 "http://www.w3.org/TR/2001/REC-SVG-20010904/DTD/svg10.dtd">
<svg version="1.0" xmlns="http://www.w3.org/2000/svg"
 width="1536.000000pt" height="1024.000000pt" viewBox="0 0 1536.000000 1024.000000"
 preserveAspectRatio="xMidYMid meet">
<metadata>
Created by potrace 1.16, written by Peter Selinger 2001-2019
</metadata>
<g transform="translate(0.000000,1024.000000) scale(0.100000,-0.100000)"
fill="#000000" stroke="none">
<path d="M4375 6636 c-120 -39 -153 -78 -277 -335 -55 -113 -227 -469 -383
-791 -155 -322 -356 -736 -445 -920 -198 -408 -370 -769 -370 -775 0 -3 180
-5 399 -5 l399 0 148 300 148 300 655 0 656 0 139 -300 139 -300 413 0 414 0
-211 423 c-177 353 -754 1519 -1051 2124 -86 176 -126 225 -216 266 -43 20
-65 22 -282 24 -171 2 -246 -1 -275 -11z m478 -1241 l205 -430 -122 -8 c-66
-4 -254 -6 -417 -5 l-296 3 205 443 c113 243 209 439 214 434 4 -4 99 -201
211 -437z"/>
<path d="M6460 5230 l0 -1420 370 0 370 0 0 1065 0 1065 583 0 c370 0 596 -4
619 -10 21 -6 56 -25 80 -43 116 -89 127 -281 21 -378 -70 -66 -52 -64 -570
-69 l-473 -5 103 -155 c56 -85 297 -451 536 -813 l433 -657 441 0 440 0 -20
23 c-23 25 -677 943 -681 956 -1 4 17 13 40 20 306 92 516 386 558 782 19 177
-11 378 -80 542 -85 198 -264 382 -443 455 -143 57 -100 55 -1259 59 l-1068 4
0 -1421z"/>
<path d="M10260 6639 c-122 -9 -203 -30 -315 -84 -110 -53 -186 -113 -248
-195 -280 -372 -210 -1027 138 -1289 70 -53 198 -113 286 -135 122 -30 271
-36 857 -36 552 1 584 0 625 -18 58 -27 97 -72 112 -130 26 -99 -14 -190 -106
-242 l-44 -25 -909 -5 -908 -5 -98 -305 c-54 -168 -103 -318 -108 -333 l-11
-28 1102 4 c1185 4 1146 2 1297 55 262 92 432 307 486 614 22 125 14 347 -16
468 -69 280 -254 471 -523 540 -143 36 -228 40 -846 40 -448 0 -614 3 -645 12
-153 46 -185 285 -48 370 l37 23 844 5 844 5 113 349 c63 191 114 349 114 350
0 5 -1953 0 -2030 -5z"/>
</g>
</svg>
